{"accessors" : [{"bufferView" : 0, "byteOffset" : 0, "componentType" : 5123, "count" : 6084, "type" : "SCALAR", "max" : [6083], "min" : [0]}, {"bufferView" : 1, "byteOffset" : 0, "componentType" : 5126, "count" : 6084, "type" : "VEC3", "max" : [1507.57666015625, 1971.1875, 2309.680908203125], "min" : [-1507.333251953125, -991.567138671875, 0], "name" : "POSITION"}, {"bufferView" : 1, "byteOffset" : 12, "componentType" : 5126, "count" : 6084, "type" : "VEC3", "max" : [1.0000044107437134, 1.0000044107437134, 1.0000044107437134], "min" : [-1.0000044107437134, -1.0000044107437134, -1.0000044107437134], "name" : "NORMAL"}, {"bufferView" : 1, "byteOffset" : 24, "componentType" : 5126, "count" : 6084, "type" : "VEC2", "max" : [1, -0], "min" : [0, -1], "name" : "TEXCOORD_0"}, {"bufferView" : 0, "byteOffset" : 12168, "componentType" : 5123, "count" : 1998, "type" : "SCALAR", "max" : [1997], "min" : [0]}, {"bufferView" : 2, "byteOffset" : 0, "componentType" : 5126, "count" : 1998, "type" : "VEC3", "max" : [29.783689498901367, 47.7965202331543, 38.97168731689453], "min" : [-75.8792495727539, -85.58222961425781, 0.3983941078186035], "name" : "POSITION"}, {"bufferView" : 2, "byteOffset" : 12, "componentType" : 5126, "count" : 1998, "type" : "VEC3", "max" : [0.9988715648651123, 0.7067787051200867, 0.8888389468193054], "min" : [-0.7075049877166748, -0.9988714456558228, -0.8888411521911621], "name" : "NORMAL"}, {"bufferView" : 0, "byteOffset" : 16164, "componentType" : 5123, "count" : 3240, "type" : "SCALAR", "max" : [3239], "min" : [0]}, {"bufferView" : 3, "byteOffset" : 0, "componentType" : 5126, "count" : 3240, "type" : "VEC3", "max" : [110.93341827392578, 85.3479995727539, 39.370079040527344], "min" : [28.617290496826172, -85.58222961425781, -1.8672288888410549E-06], "name" : "POSITION"}, {"bufferView" : 3, "byteOffset" : 12, "componentType" : 5126, "count" : 3240, "type" : "VEC3", "max" : [0.9967814087867737, 0.9980519413948059, 0.9995385408401489], "min" : [-0.9975835084915161, -0.9980482459068298, -0.9995386004447937], "name" : "NORMAL"}, {"bufferView" : 0, "byteOffset" : 22644, "componentType" : 5123, "count" : 4170, "type" : "SCALAR", "max" : [4169], "min" : [0]}, {"bufferView" : 4, "byteOffset" : 0, "componentType" : 5126, "count" : 4170, "type" : "VEC3", "max" : [29.852027893066406, 85.3479995727539, 39.370079040527344], "min" : [-76.3066177368164, -85.15220642089844, -1.8672288888410549E-06], "name" : "POSITION"}, {"bufferView" : 4, "byteOffset" : 12, "componentType" : 5126, "count" : 4170, "type" : "VEC3", "max" : [0.7067780494689941, 0.9994506239891052, 0.9999149441719055], "min" : [-0.9987842440605164, -0.7075724005699158, -0.9999150037765503], "name" : "NORMAL"}, {"bufferView" : 0, "byteOffset" : 30984, "componentType" : 5123, "count" : 3504, "type" : "SCALAR", "max" : [3503], "min" : [0]}, {"bufferView" : 5, "byteOffset" : 0, "componentType" : 5126, "count" : 3504, "type" : "VEC3", "max" : [14.408300399780273, 14.638616561889648, 43.844017028808594], "min" : [-1.493475317955017, -14.638618469238281, 4.47393798828125], "name" : "POSITION"}, {"bufferView" : 5, "byteOffset" : 12, "componentType" : 5126, "count" : 3504, "type" : "VEC3", "max" : [0.9994486570358276, 0.9987127780914307, 0.9993950128555298], "min" : [-0.9987126588821411, -0.9987126588821411, -0.999394953250885], "name" : "NORMAL"}, {"bufferView" : 5, "byteOffset" : 24, "componentType" : 5126, "count" : 3504, "type" : "VEC2", "max" : [2.0517807006835938, -0], "min" : [-0.025476234033703804, -0], "name" : "TEXCOORD_0"}, {"bufferView" : 0, "byteOffset" : 37992, "componentType" : 5123, "count" : 3504, "type" : "SCALAR", "max" : [3503], "min" : [0]}, {"bufferView" : 6, "byteOffset" : 0, "componentType" : 5126, "count" : 3504, "type" : "VEC3", "max" : [14.408300399780273, 14.638616561889648, 43.844017028808594], "min" : [-1.493475317955017, -14.638618469238281, 4.47393798828125], "name" : "POSITION"}, {"bufferView" : 6, "byteOffset" : 12, "componentType" : 5126, "count" : 3504, "type" : "VEC3", "max" : [0.9994486570358276, 0.9987127780914307, 0.9993950128555298], "min" : [-0.9987126588821411, -0.9987126588821411, -0.999394953250885], "name" : "NORMAL"}, {"bufferView" : 6, "byteOffset" : 24, "componentType" : 5126, "count" : 3504, "type" : "VEC2", "max" : [2.0517807006835938, -0], "min" : [-0.025476234033703804, -0], "name" : "TEXCOORD_0"}, {"bufferView" : 0, "byteOffset" : 45000, "componentType" : 5123, "count" : 1998, "type" : "SCALAR", "max" : [1997], "min" : [0]}, {"bufferView" : 7, "byteOffset" : 0, "componentType" : 5126, "count" : 1998, "type" : "VEC3", "max" : [29.783689498901367, 47.7965202331543, 38.97168731689453], "min" : [-75.8792495727539, -85.58222961425781, 0.3983941078186035], "name" : "POSITION"}, {"bufferView" : 7, "byteOffset" : 12, "componentType" : 5126, "count" : 1998, "type" : "VEC3", "max" : [0.9988715648651123, 0.7067787051200867, 0.8888389468193054], "min" : [-0.7075049877166748, -0.9988714456558228, -0.8888411521911621], "name" : "NORMAL"}, {"bufferView" : 0, "byteOffset" : 48996, "componentType" : 5123, "count" : 3240, "type" : "SCALAR", "max" : [3239], "min" : [0]}, {"bufferView" : 8, "byteOffset" : 0, "componentType" : 5126, "count" : 3240, "type" : "VEC3", "max" : [110.93341827392578, 85.3479995727539, 39.370079040527344], "min" : [28.617290496826172, -85.58222961425781, -1.8672288888410549E-06], "name" : "POSITION"}, {"bufferView" : 8, "byteOffset" : 12, "componentType" : 5126, "count" : 3240, "type" : "VEC3", "max" : [0.9967814087867737, 0.9980519413948059, 0.9995385408401489], "min" : [-0.9975835084915161, -0.9980482459068298, -0.9995386004447937], "name" : "NORMAL"}, {"bufferView" : 0, "byteOffset" : 55476, "componentType" : 5123, "count" : 4170, "type" : "SCALAR", "max" : [4169], "min" : [0]}, {"bufferView" : 9, "byteOffset" : 0, "componentType" : 5126, "count" : 4170, "type" : "VEC3", "max" : [29.852027893066406, 85.3479995727539, 39.370079040527344], "min" : [-76.3066177368164, -85.15220642089844, -1.8672288888410549E-06], "name" : "POSITION"}, {"bufferView" : 9, "byteOffset" : 12, "componentType" : 5126, "count" : 4170, "type" : "VEC3", "max" : [0.7067780494689941, 0.9994506239891052, 0.9999149441719055], "min" : [-0.9987842440605164, -0.7075724005699158, -0.9999150037765503], "name" : "NORMAL"}, {"bufferView" : 0, "byteOffset" : 63816, "componentType" : 5123, "count" : 3504, "type" : "SCALAR", "max" : [3503], "min" : [0]}, {"bufferView" : 10, "byteOffset" : 0, "componentType" : 5126, "count" : 3504, "type" : "VEC3", "max" : [14.408300399780273, 14.638616561889648, 43.844017028808594], "min" : [-1.493475317955017, -14.638618469238281, 4.47393798828125], "name" : "POSITION"}, {"bufferView" : 10, "byteOffset" : 12, "componentType" : 5126, "count" : 3504, "type" : "VEC3", "max" : [0.9994486570358276, 0.9987127780914307, 0.9993950128555298], "min" : [-0.9987126588821411, -0.9987126588821411, -0.999394953250885], "name" : "NORMAL"}, {"bufferView" : 10, "byteOffset" : 24, "componentType" : 5126, "count" : 3504, "type" : "VEC2", "max" : [2.0517807006835938, -0], "min" : [-0.025476234033703804, -0], "name" : "TEXCOORD_0"}, {"bufferView" : 0, "byteOffset" : 70824, "componentType" : 5123, "count" : 1998, "type" : "SCALAR", "max" : [1997], "min" : [0]}, {"bufferView" : 11, "byteOffset" : 0, "componentType" : 5126, "count" : 1998, "type" : "VEC3", "max" : [29.783689498901367, 47.7965202331543, 38.97168731689453], "min" : [-75.8792495727539, -85.58222961425781, 0.3983941078186035], "name" : "POSITION"}, {"bufferView" : 11, "byteOffset" : 12, "componentType" : 5126, "count" : 1998, "type" : "VEC3", "max" : [0.9988715648651123, 0.7067787051200867, 0.8888389468193054], "min" : [-0.7075049877166748, -0.9988714456558228, -0.8888411521911621], "name" : "NORMAL"}, {"bufferView" : 0, "byteOffset" : 74820, "componentType" : 5123, "count" : 3240, "type" : "SCALAR", "max" : [3239], "min" : [0]}, {"bufferView" : 12, "byteOffset" : 0, "componentType" : 5126, "count" : 3240, "type" : "VEC3", "max" : [110.93341827392578, 85.3479995727539, 39.370079040527344], "min" : [28.617290496826172, -85.58222961425781, -1.8672288888410549E-06], "name" : "POSITION"}, {"bufferView" : 12, "byteOffset" : 12, "componentType" : 5126, "count" : 3240, "type" : "VEC3", "max" : [0.9967814087867737, 0.9980519413948059, 0.9995385408401489], "min" : [-0.9975835084915161, -0.9980482459068298, -0.9995386004447937], "name" : "NORMAL"}, {"bufferView" : 0, "byteOffset" : 81300, "componentType" : 5123, "count" : 4170, "type" : "SCALAR", "max" : [4169], "min" : [0]}, {"bufferView" : 13, "byteOffset" : 0, "componentType" : 5126, "count" : 4170, "type" : "VEC3", "max" : [29.852027893066406, 85.3479995727539, 39.370079040527344], "min" : [-76.3066177368164, -85.15220642089844, -1.8672288888410549E-06], "name" : "POSITION"}, {"bufferView" : 13, "byteOffset" : 12, "componentType" : 5126, "count" : 4170, "type" : "VEC3", "max" : [0.7067780494689941, 0.9994506239891052, 0.9999149441719055], "min" : [-0.9987842440605164, -0.7075724005699158, -0.9999150037765503], "name" : "NORMAL"}, {"bufferView" : 0, "byteOffset" : 89640, "componentType" : 5123, "count" : 3504, "type" : "SCALAR", "max" : [3503], "min" : [0]}, {"bufferView" : 14, "byteOffset" : 0, "componentType" : 5126, "count" : 3504, "type" : "VEC3", "max" : [14.408300399780273, 14.638616561889648, 43.844017028808594], "min" : [-1.493475317955017, -14.638618469238281, 4.47393798828125], "name" : "POSITION"}, {"bufferView" : 14, "byteOffset" : 12, "componentType" : 5126, "count" : 3504, "type" : "VEC3", "max" : [0.9994486570358276, 0.9987127780914307, 0.9993950128555298], "min" : [-0.9987126588821411, -0.9987126588821411, -0.999394953250885], "name" : "NORMAL"}, {"bufferView" : 14, "byteOffset" : 24, "componentType" : 5126, "count" : 3504, "type" : "VEC2", "max" : [2.0517807006835938, -0], "min" : [-0.025476234033703804, -0], "name" : "TEXCOORD_0"}, {"bufferView" : 0, "byteOffset" : 96648, "componentType" : 5123, "count" : 1998, "type" : "SCALAR", "max" : [1997], "min" : [0]}, {"bufferView" : 15, "byteOffset" : 0, "componentType" : 5126, "count" : 1998, "type" : "VEC3", "max" : [29.783689498901367, 47.7965202331543, 38.97168731689453], "min" : [-75.8792495727539, -85.58222961425781, 0.3983941078186035], "name" : "POSITION"}, {"bufferView" : 15, "byteOffset" : 12, "componentType" : 5126, "count" : 1998, "type" : "VEC3", "max" : [0.9988715648651123, 0.7067787051200867, 0.8888389468193054], "min" : [-0.7075049877166748, -0.9988714456558228, -0.8888411521911621], "name" : "NORMAL"}, {"bufferView" : 0, "byteOffset" : 100644, "componentType" : 5123, "count" : 3240, "type" : "SCALAR", "max" : [3239], "min" : [0]}, {"bufferView" : 16, "byteOffset" : 0, "componentType" : 5126, "count" : 3240, "type" : "VEC3", "max" : [110.93341827392578, 85.3479995727539, 39.370079040527344], "min" : [28.617290496826172, -85.58222961425781, -1.8672288888410549E-06], "name" : "POSITION"}, {"bufferView" : 16, "byteOffset" : 12, "componentType" : 5126, "count" : 3240, "type" : "VEC3", "max" : [0.9967814087867737, 0.9980519413948059, 0.9995385408401489], "min" : [-0.9975835084915161, -0.9980482459068298, -0.9995386004447937], "name" : "NORMAL"}, {"bufferView" : 0, "byteOffset" : 107124, "componentType" : 5123, "count" : 4170, "type" : "SCALAR", "max" : [4169], "min" : [0]}, {"bufferView" : 17, "byteOffset" : 0, "componentType" : 5126, "count" : 4170, "type" : "VEC3", "max" : [29.852027893066406, 85.3479995727539, 39.370079040527344], "min" : [-76.3066177368164, -85.15220642089844, -1.8672288888410549E-06], "name" : "POSITION"}, {"bufferView" : 17, "byteOffset" : 12, "componentType" : 5126, "count" : 4170, "type" : "VEC3", "max" : [0.7067780494689941, 0.9994506239891052, 0.9999149441719055], "min" : [-0.9987842440605164, -0.7075724005699158, -0.9999150037765503], "name" : "NORMAL"}], "asset" : {"generator" : "Aspose.3D 23.4.0", "version" : "2.0"}, "buffers" : [{"uri" : "data:application/octet-stream;base64,", "byteLength" : 1661904}], "bufferViews" : [{"buffer" : 0, "byteOffset" : 0, "byteLength" : 115464, "target" : 34963}, {"buffer" : 0, "byteOffset" : 115468, "byteLength" : 194688, "byteStride" : 32, "target" : 34962}, {"buffer" : 0, "byteOffset" : 310160, "byteLength" : 47952, "byteStride" : 24, "target" : 34962}, {"buffer" : 0, "byteOffset" : 358116, "byteLength" : 77760, "byteStride" : 24, "target" : 34962}, {"buffer" : 0, "byteOffset" : 435880, "byteLength" : 100080, "byteStride" : 24, "target" : 34962}, {"buffer" : 0, "byteOffset" : 535964, "byteLength" : 112128, "byteStride" : 32, "target" : 34962}, {"buffer" : 0, "byteOffset" : 648096, "byteLength" : 112128, "byteStride" : 32, "target" : 34962}, {"buffer" : 0, "byteOffset" : 760228, "byteLength" : 47952, "byteStride" : 24, "target" : 34962}, {"buffer" : 0, "byteOffset" : 808184, "byteLength" : 77760, "byteStride" : 24, "target" : 34962}, {"buffer" : 0, "byteOffset" : 885948, "byteLength" : 100080, "byteStride" : 24, "target" : 34962}, {"buffer" : 0, "byteOffset" : 986032, "byteLength" : 112128, "byteStride" : 32, "target" : 34962}, {"buffer" : 0, "byteOffset" : 1098164, "byteLength" : 47952, "byteStride" : 24, "target" : 34962}, {"buffer" : 0, "byteOffset" : 1146120, "byteLength" : 77760, "byteStride" : 24, "target" : 34962}, {"buffer" : 0, "byteOffset" : 1223884, "byteLength" : 100080, "byteStride" : 24, "target" : 34962}, {"buffer" : 0, "byteOffset" : 1323968, "byteLength" : 112128, "byteStride" : 32, "target" : 34962}, {"buffer" : 0, "byteOffset" : 1436100, "byteLength" : 47952, "byteStride" : 24, "target" : 34962}, {"buffer" : 0, "byteOffset" : 1484056, "byteLength" : 77760, "byteStride" : 24, "target" : 34962}, {"buffer" : 0, "byteOffset" : 1561820, "byteLength" : 100080, "byteStride" : 24, "target" : 34962}], "materials" : [{"name" : "Material #59", "pbrMetallicRoughness" : {"baseColorFactor" : [0.6313725709915161, 0.6313725709915161, 0.6313725709915161, 1], "metallicFactor" : 0, "roughnessFactor" : 0}, "emissiveFactor" : [0, 0, 0], "alphaMode" : "OPAQUE", "doubleSided" : false}, {"name" : "Material #22", "pbrMetallicRoughness" : {"baseColorFactor" : [0.4705882966518402, 0.4705882966518402, 0.4705882966518402, 1], "metallicFactor" : 0, "roughnessFactor" : 0}, "emissiveFactor" : [0, 0, 0], "alphaMode" : "OPAQUE", "doubleSided" : false}, {"name" : "Material #8", "pbrMetallicRoughness" : {"baseColorFactor" : [0.9921568632125854, 0.7686274647712708, 0, 1], "metallicFactor" : 0, "roughnessFactor" : 0}, "emissiveFactor" : [0, 0, 0], "alphaMode" : "OPAQUE", "doubleSided" : false}, {"name" : "Material #19", "pbrMetallicRoughness" : {"baseColorFactor" : [1, 1, 1, 1], "metallicFactor" : 0, "roughnessFactor" : 0}, "emissiveFactor" : [0, 0, 0], "alphaMode" : "OPAQUE", "doubleSided" : false}, {"name" : "Material #19", "pbrMetallicRoughness" : {"baseColorFactor" : [1, 1, 1, 1], "metallicFactor" : 0, "roughnessFactor" : 0}, "emissiveFactor" : [0, 0, 0], "alphaMode" : "OPAQUE", "doubleSided" : false}, {"name" : "Material #19", "pbrMetallicRoughness" : {"baseColorFactor" : [1, 1, 1, 1], "metallicFactor" : 0, "roughnessFactor" : 0}, "emissiveFactor" : [0, 0, 0], "alphaMode" : "OPAQUE", "doubleSided" : false}, {"name" : "Material #22", "pbrMetallicRoughness" : {"baseColorFactor" : [0.4705882966518402, 0.4705882966518402, 0.4705882966518402, 1], "metallicFactor" : 0, "roughnessFactor" : 0}, "emissiveFactor" : [0, 0, 0], "alphaMode" : "OPAQUE", "doubleSided" : false}, {"name" : "Material #8", "pbrMetallicRoughness" : {"baseColorFactor" : [0.9921568632125854, 0.7686274647712708, 0, 1], "metallicFactor" : 0, "roughnessFactor" : 0}, "emissiveFactor" : [0, 0, 0], "alphaMode" : "OPAQUE", "doubleSided" : false}, {"name" : "Material #19", "pbrMetallicRoughness" : {"baseColorFactor" : [1, 1, 1, 1], "metallicFactor" : 0, "roughnessFactor" : 0}, "emissiveFactor" : [0, 0, 0], "alphaMode" : "OPAQUE", "doubleSided" : false}, {"name" : "Material #19", "pbrMetallicRoughness" : {"baseColorFactor" : [1, 1, 1, 1], "metallicFactor" : 0, "roughnessFactor" : 0}, "emissiveFactor" : [0, 0, 0], "alphaMode" : "OPAQUE", "doubleSided" : false}, {"name" : "Material #22", "pbrMetallicRoughness" : {"baseColorFactor" : [0.4705882966518402, 0.4705882966518402, 0.4705882966518402, 1], "metallicFactor" : 0, "roughnessFactor" : 0}, "emissiveFactor" : [0, 0, 0], "alphaMode" : "OPAQUE", "doubleSided" : false}, {"name" : "Material #8", "pbrMetallicRoughness" : {"baseColorFactor" : [0.9921568632125854, 0.7686274647712708, 0, 1], "metallicFactor" : 0, "roughnessFactor" : 0}, "emissiveFactor" : [0, 0, 0], "alphaMode" : "OPAQUE", "doubleSided" : false}, {"name" : "Material #19", "pbrMetallicRoughness" : {"baseColorFactor" : [1, 1, 1, 1], "metallicFactor" : 0, "roughnessFactor" : 0}, "emissiveFactor" : [0, 0, 0], "alphaMode" : "OPAQUE", "doubleSided" : false}, {"name" : "Material #19", "pbrMetallicRoughness" : {"baseColorFactor" : [1, 1, 1, 1], "metallicFactor" : 0, "roughnessFactor" : 0}, "emissiveFactor" : [0, 0, 0], "alphaMode" : "OPAQUE", "doubleSided" : false}, {"name" : "Material #22", "pbrMetallicRoughness" : {"baseColorFactor" : [0.4705882966518402, 0.4705882966518402, 0.4705882966518402, 1], "metallicFactor" : 0, "roughnessFactor" : 0}, "emissiveFactor" : [0, 0, 0], "alphaMode" : "OPAQUE", "doubleSided" : false}, {"name" : "Material #8", "pbrMetallicRoughness" : {"baseColorFactor" : [0.9921568632125854, 0.7686274647712708, 0, 1], "metallicFactor" : 0, "roughnessFactor" : 0}, "emissiveFactor" : [0, 0, 0], "alphaMode" : "OPAQUE", "doubleSided" : false}, {"name" : "Material #19", "pbrMetallicRoughness" : {"baseColorFactor" : [1, 1, 1, 1], "metallicFactor" : 0, "roughnessFactor" : 0}, "emissiveFactor" : [0, 0, 0], "alphaMode" : "OPAQUE", "doubleSided" : false}], "meshes" : [{"primitives" : [{"attributes" : {"POSITION" : 1, "NORMAL" : 2, "TEXCOORD_0" : 3}, "indices" : 0, "material" : 0, "mode" : 4}], "name" : ""}, {"primitives" : [{"attributes" : {"POSITION" : 5, "NORMAL" : 6}, "indices" : 4, "material" : 1, "mode" : 4}, {"attributes" : {"POSITION" : 8, "NORMAL" : 9}, "indices" : 7, "material" : 2, "mode" : 4}, {"attributes" : {"POSITION" : 11, "NORMAL" : 12}, "indices" : 10, "material" : 3, "mode" : 4}], "name" : ""}, {"primitives" : [{"attributes" : {"POSITION" : 14, "NORMAL" : 15, "TEXCOORD_0" : 16}, "indices" : 13, "material" : 4, "mode" : 4}], "name" : ""}, {"primitives" : [{"attributes" : {"POSITION" : 18, "NORMAL" : 19, "TEXCOORD_0" : 20}, "indices" : 17, "material" : 5, "mode" : 4}], "name" : ""}, {"primitives" : [{"attributes" : {"POSITION" : 22, "NORMAL" : 23}, "indices" : 21, "material" : 6, "mode" : 4}, {"attributes" : {"POSITION" : 25, "NORMAL" : 26}, "indices" : 24, "material" : 7, "mode" : 4}, {"attributes" : {"POSITION" : 28, "NORMAL" : 29}, "indices" : 27, "material" : 8, "mode" : 4}], "name" : ""}, {"primitives" : [{"attributes" : {"POSITION" : 31, "NORMAL" : 32, "TEXCOORD_0" : 33}, "indices" : 30, "material" : 9, "mode" : 4}], "name" : ""}, {"primitives" : [{"attributes" : {"POSITION" : 35, "NORMAL" : 36}, "indices" : 34, "material" : 10, "mode" : 4}, {"attributes" : {"POSITION" : 38, "NORMAL" : 39}, "indices" : 37, "material" : 11, "mode" : 4}, {"attributes" : {"POSITION" : 41, "NORMAL" : 42}, "indices" : 40, "material" : 12, "mode" : 4}], "name" : ""}, {"primitives" : [{"attributes" : {"POSITION" : 44, "NORMAL" : 45, "TEXCOORD_0" : 46}, "indices" : 43, "material" : 13, "mode" : 4}], "name" : ""}, {"primitives" : [{"attributes" : {"POSITION" : 48, "NORMAL" : 49}, "indices" : 47, "material" : 14, "mode" : 4}, {"attributes" : {"POSITION" : 51, "NORMAL" : 52}, "indices" : 50, "material" : 15, "mode" : 4}, {"attributes" : {"POSITION" : 54, "NORMAL" : 55}, "indices" : 53, "material" : 16, "mode" : 4}], "name" : ""}], "nodes" : [{"matrix" : [0.7692749999999907, 1.1920926034859123E-07, 0, 0, -1.1920926034859123E-07, 0.7692749999999907, 0, 0, 0, 0, 0.7692749999999999, 0, -2.6495999558965044, -376.78349847336665, -888.3898598114013, 1], "mesh" : 0, "name" : "Box001"}, {"matrix" : [5.888992999998595, 4.053115663546755E-06, -3.5101150637992723E-07, 0, 3.5101361622328705E-07, -3.065506538490977E-06, 5.888992999999192, 0, 4.053115480827681E-06, -5.888992999997808, -3.065506780076334E-06, 0, -89.98639353120905, -1141.37237387396, -72.14032212189642, 1], "mesh" : 1, "name" : "Line024"}, {"matrix" : [5.888992999998595, 4.053115663546755E-06, -3.5101150637992723E-07, 0, 3.5101361622328705E-07, -3.065506538490977E-06, 5.888992999999192, 0, 4.053115480827681E-06, -5.888992999997808, -3.065506780076334E-06, 0, 76.53135760044557, -1116.8417996375988, -69.31680385253732, 1], "mesh" : 2, "name" : "Cylinder007"}, {"matrix" : [-5.888992999997654, -5.245208505501434E-06, -3.510113358496221E-07, 0, -3.510140662351288E-07, 3.0655064674363338E-06, 5.888992999999192, 0, -5.2452083227822905E-06, 5.888992999996867, -3.065506780076334E-06, 0, -70.12996710568653, 1116.8417812423215, -69.31680385253469, 1], "mesh" : 3, "name" : "Cylinder008"}, {"matrix" : [-5.888992999997654, -5.245208505501434E-06, -3.510113358496221E-07, 0, -3.510140662351288E-07, 3.0655064674363338E-06, 5.888992999999192, 0, -5.2452083227822905E-06, 5.888992999996867, -3.065506780076334E-06, 0, 96.38778418508741, 1141.3723945131567, -72.14032212189937, 1], "mesh" : 4, "name" : "Line025"}, {"matrix" : [-2.1457671168957873E-06, 5.888992999999568, -7.020226716994724E-07, 0, 3.0655065242807627E-06, 7.020237886752967E-07, 5.888992999999161, 0, 5.888992999998812, 2.1457667514586265E-06, -3.065506780076318E-06, 0, 1145.4316728200524, 65.49721520455569, -69.31680926902332, 1], "mesh" : 5, "name" : "Cylinder009"}, {"matrix" : [-2.1457671168957873E-06, 5.888992999999568, -7.020226716994724E-07, 0, 3.0655065242807627E-06, 7.020237886752967E-07, 5.888992999999161, 0, 5.888992999998812, 2.1457667514586265E-06, -3.065506780076318E-06, 0, 1169.962184601255, -101.0205356313822, -72.14031604470028, 1], "mesh" : 6, "name" : "Line026"}, {"matrix" : [5.722046104479444E-06, -5.8889929999972095, -3.5101130742788515E-07, 0, -4.469551917097258E-06, -3.5101565027266634E-07, 5.888992999998294, 0, -5.888992999995524, -5.722045838071754E-06, -4.469552258159859E-06, 0, -1145.4318617748486, -81.16407643511822, -69.31677640129043, 1], "mesh" : 7, "name" : "Cylinder010"}, {"matrix" : [5.722046104479444E-06, -5.8889929999972095, -3.5101130742788515E-07, 0, -4.469551917097258E-06, -3.5101565027266634E-07, 5.888992999998294, 0, -5.888992999995524, -5.722045838071754E-06, -4.469552258159859E-06, 0, -1169.9624908239223, 85.35367491930111, -72.14029448320925, 1], "mesh" : 8, "name" : "Line027"}, {"children" : [0, 1, 2, 3, 4, 5, 6, 7, 8], "matrix" : [0.7071067811865476, -4.329780281177466E-17, 0.7071067811865475, 0, 0.7071067811865475, 4.329780281177467E-17, -0.7071067811865476, 0, 0, 1, 6.123233995736766E-17, 0, -124.93963623046925, 236.14041137695312, -651.155395507811, 1], "name" : "CUBE "}], "scene" : 0, "scenes" : [{"nodes" : [9]}]}